<svg width="25" height="21" viewBox="0 0 25 21" fill="none" xmlns="http://www.w3.org/2000/svg">
<path d="M9.25 20.9998C5.67808 20.9818 2.72345 14.6017 2.72345 11.3525C2.72345 6.0449 7.27384 4.88293 9.02753 4.88293C9.81784 4.88293 10.6617 5.15449 11.4061 5.3948C11.9266 5.56243 12.4649 5.73548 12.7643 5.73548C12.9435 5.73548 13.3658 5.58827 13.7386 5.45911C14.5337 5.18213 15.5232 4.83789 16.6754 4.83789C16.6774 4.83789 16.6802 4.83789 16.6822 4.83789C17.5426 4.83789 20.1512 5.0031 21.7195 7.06389L22.0868 7.54693L21.5581 7.89601C20.8028 8.39468 19.4247 9.30433 19.4247 11.1062C19.4247 13.2403 20.9854 14.061 21.7353 14.4557C22.0662 14.63 22.4088 14.8096 22.4088 15.2025C22.4088 15.4591 20.0688 20.9679 16.6705 20.9679C15.839 20.9679 15.2513 20.7492 14.7328 20.5564C14.2082 20.3611 13.7557 20.1929 13.008 20.1929C12.6289 20.1929 12.1496 20.3497 11.6422 20.5162C10.9488 20.7426 10.1639 20.9998 9.27334 20.9998H9.25Z" fill="#41414D"/>
<path d="M17.0354 0C17.1239 2.79218 14.8418 4.72926 12.5624 4.60778C12.1868 2.37952 14.8415 0 17.0354 0Z" fill="#41414D"/>
</svg>
