<svg xmlns="http://www.w3.org/2000/svg" xmlns:xlink="http://www.w3.org/1999/xlink" width="500" zoomAndPan="magnify" viewBox="0 0 375 374.999991" height="500" preserveAspectRatio="xMidYMid meet" version="1.0"><defs><g/></defs><g fill="rgb(65.098572%, 65.098572%, 65.098572%)" fill-opacity="1"><g transform="translate(54.794834, 211.139409)"><g><path d="M 39.410156 -45.941406 C 39.820312 -54.09375 34.433594 -58.859375 24.949219 -57.921875 C 16.027344 -56.902344 11.078125 -51.726562 11.234375 -44.113281 C 11.601562 -30.9375 29.078125 -28.296875 29.769531 -17.605469 C 30.160156 -11.90625 27.394531 -8.183594 21.960938 -7.589844 C 16.128906 -7.027344 11.15625 -12.234375 12.480469 -21.921875 C 12.199219 -24.167969 6.292969 -24.226562 5.429688 -22.308594 C 3.097656 -11.242188 7.828125 -0.335938 21.941406 -2 C 32.492188 -3.226562 38.988281 -9.222656 38.34375 -18.898438 C 37.597656 -31.316406 20.410156 -34.78125 19.96875 -44.71875 C 19.640625 -49.949219 22.691406 -51.980469 25.492188 -52.246094 C 29.367188 -52.726562 32.339844 -50.96875 32.5625 -45.332031 C 33.226562 -43.132812 38.921875 -43.519531 39.410156 -45.941406 Z M 39.410156 -45.941406 "/></g></g></g><g fill="rgb(65.098572%, 65.098572%, 65.098572%)" fill-opacity="1"><g transform="translate(94.315153, 206.258316)"><g><path d="M 4.882812 -54.109375 C 1.921875 -41.78125 -1.65625 -19.152344 -3.679688 -1.121094 C -4.082031 2 5.125 0.0742188 5.320312 -1.523438 C 5.921875 -8.128906 6.480469 -12.523438 7.585938 -20.136719 C 9.800781 -24.5 13.449219 -28.726562 16.074219 -29.132812 C 18.851562 -29.554688 18.867188 -26.878906 18.535156 -24.476562 C 18.085938 -21.117188 16.621094 -13.226562 16.566406 -9.835938 C 16.464844 -4.945312 18.027344 -1.203125 24.421875 -2.308594 C 31.976562 -3.554688 36.371094 -13.226562 38.765625 -20.601562 C 39.113281 -21.589844 36.125 -22.875 35.859375 -21.816406 C 33.941406 -15.050781 29.941406 -8.578125 26.929688 -8.125 C 23.546875 -7.472656 25.738281 -15.21875 27.324219 -25.957031 C 28.339844 -32.378906 26.214844 -36.835938 19.949219 -35.984375 C 14.988281 -35.371094 10.757812 -30.125 8.292969 -26.515625 C 9.730469 -35.902344 11.65625 -47.707031 13.230469 -53.40625 C 13.4375 -55.558594 6.242188 -55.847656 4.882812 -54.109375 Z M 4.882812 -54.109375 "/></g></g></g><g fill="rgb(65.098572%, 65.098572%, 65.098572%)" fill-opacity="1"><g transform="translate(125.156245, 202.44918)"><g><path d="M 15.625 -35.292969 C 6.519531 -34.480469 -0.832031 -27.121094 -1.671875 -16.710938 C -2.535156 -7.792969 2.683594 0.0625 14.511719 -1.003906 C 21.902344 -1.683594 30.886719 -5.386719 35.429688 -20.191406 C 35.703125 -21.167969 32.800781 -22.382812 32.449219 -21.398438 C 29.21875 -10.613281 21.339844 -6.882812 16 -6.777344 C 10.507812 -6.648438 7.25 -9.472656 7.101562 -14.488281 C 16.351562 -13.507812 23.378906 -17.128906 25.527344 -23.296875 C 27.773438 -29.316406 24.34375 -36.054688 15.625 -35.292969 Z M 15.300781 -29.664062 C 18.253906 -29.949219 18.675781 -27.171875 17.75 -24.460938 C 16.621094 -20.859375 12.996094 -18.363281 7.15625 -18.507812 C 7.863281 -24.261719 11.628906 -29.449219 15.300781 -29.664062 Z M 15.300781 -29.664062 "/></g></g></g><g fill="rgb(65.098572%, 65.098572%, 65.098572%)" fill-opacity="1"><g transform="translate(152.665129, 199.051601)"><g><path d="M 33.835938 -21.648438 C 30.953125 -12.476562 26.9375 -8.046875 22.433594 -7.570312 C 19.023438 -7.148438 17.34375 -10.5625 16.839844 -15.929688 C 27.964844 -20.765625 30.257812 -31.511719 25.023438 -35.035156 C 21.230469 -37.714844 12.738281 -35.09375 8.136719 -27.128906 C 9.175781 -34.652344 11.742188 -48.265625 12.535156 -53.320312 C 12.324219 -55.65625 5.011719 -55.617188 4.261719 -54.03125 C 2.035156 -41.480469 -1.429688 -21.144531 -3.902344 -1.011719 C -3.867188 1.816406 4.289062 0.335938 4.835938 -1.621094 C 5.238281 -5.996094 5.855469 -10.558594 6.765625 -17.203125 C 7.648438 -24.078125 14.332031 -30.488281 17.875 -29.195312 C 21.542969 -28.152344 19.375 -21.511719 9.828125 -16.636719 C 10.601562 -3.355469 15.828125 -1.167969 20.710938 -1.769531 C 27.597656 -2.699219 33.355469 -10.257812 36.671875 -20.34375 C 37.023438 -21.332031 34.117188 -22.546875 33.835938 -21.648438 Z M 33.835938 -21.648438 "/></g></g></g><g fill="rgb(65.098572%, 65.098572%, 65.098572%)" fill-opacity="1"><g transform="translate(181.413902, 195.500884)"><g><path d="M 6.140625 -38.839844 C 9.238281 -39.222656 11.171875 -41.429688 11.136719 -44.257812 C 11.1875 -47.019531 9.242188 -48.746094 6.453125 -48.402344 C 3.578125 -48.125 1.644531 -45.917969 1.527344 -43.070312 C 1.472656 -40.308594 3.582031 -38.523438 6.140625 -38.839844 Z M 4.96875 0.09375 C 13.007812 -1.054688 17.703125 -10.839844 20.097656 -18.21875 C 20.4375 -19.285156 17.523438 -20.574219 17.183594 -19.511719 C 15.332031 -12.832031 10.964844 -6.152344 7.398438 -5.714844 C 5.78125 -5.433594 5.601562 -7.535156 5.835938 -10.714844 C 6.347656 -16.128906 7.355469 -21.367188 9.046875 -32.511719 C 8.273438 -34.304688 1.804688 -34.449219 0.785156 -32.515625 C -0.769531 -22.800781 -1.855469 -16.292969 -2.660156 -8.796875 C -3.316406 -2.660156 -1.445312 1.042969 4.96875 0.09375 Z M 4.96875 0.09375 "/></g></g></g><g fill="rgb(65.098572%, 65.098572%, 65.098572%)" fill-opacity="1"><g transform="translate(193.579142, 193.998375)"><g><path d="M 20.023438 -35.992188 C 14.902344 -35.4375 10.253906 -29.75 7.863281 -26.148438 C 8.285156 -28.484375 8.433594 -29.839844 8.824219 -32.40625 C 7.75 -34.710938 1.660156 -34.351562 0.628906 -32.496094 C -1.074219 -20.796875 -2.617188 -11.636719 -3.824219 -1.023438 C -3.355469 1.515625 4.289062 0.335938 4.933594 -1.476562 C 5.699219 -8.652344 6.0625 -12.707031 7.332031 -20.261719 C 9.722656 -24.492188 13.378906 -28.640625 16.082031 -29.054688 C 18.707031 -29.457031 18.636719 -26.851562 18.382812 -24.457031 C 18.074219 -21.195312 16.949219 -12.480469 16.808594 -9.785156 C 16.5 -4.632812 18.707031 -1.445312 24.578125 -2.328125 C 32.085938 -3.332031 36.730469 -13.507812 38.996094 -20.632812 C 39.269531 -21.609375 36.367188 -22.824219 36.09375 -21.847656 C 34.046875 -14.828125 30.183594 -8.527344 27.007812 -8.136719 C 25.070312 -7.894531 25.09375 -10.890625 25.359375 -13.832031 C 25.75 -17.660156 26.84375 -22.199219 27.253906 -25.871094 C 27.953125 -32.328125 25.925781 -36.640625 20.023438 -35.992188 Z M 20.023438 -35.992188 "/></g></g></g><g fill="rgb(65.098572%, 65.098572%, 65.098572%)" fill-opacity="1"><g transform="translate(224.652708, 190.160527)"><g><path d="M 14.394531 -35.0625 C 5.820312 -32.507812 -2.144531 -22.472656 -2.570312 -11.878906 C -2.890625 -3.027344 1.957031 0.546875 7.605469 -0.230469 C 13.863281 -1.160156 16.679688 -6.386719 18.808594 -11.449219 C 18.585938 -5.601562 21.117188 -2.292969 24.839844 -2.753906 C 32.125 -3.652344 37.25 -11.839844 40.238281 -20.785156 C 40.585938 -21.773438 37.605469 -22.976562 37.332031 -22 C 35.375 -14.914062 30.757812 -8.992188 27.898438 -8.558594 C 26.117188 -8.339844 25.429688 -10.066406 25.804688 -14.046875 C 26.03125 -17.929688 26.855469 -22.75 27.34375 -25.800781 C 26.832031 -27.390625 20.894531 -28.308594 19.71875 -26.355469 C 18.3125 -16.109375 12.015625 -3.371094 7.757812 -6.625 C 5.753906 -8.1875 5.570312 -13.511719 7.351562 -18.847656 C 9.121094 -24.257812 12.894531 -28.738281 17.3125 -29.914062 C 20.820312 -30.820312 25.296875 -30.269531 28.789062 -28.105469 C 30.105469 -27.636719 32.84375 -31.59375 31.914062 -32.738281 C 27.027344 -36.621094 19.40625 -36.546875 14.394531 -35.0625 Z M 14.394531 -35.0625 "/></g></g></g><g fill="rgb(65.098572%, 65.098572%, 65.098572%)" fill-opacity="1"><g transform="translate(257.043665, 186.15997)"><g><path d="M 4.882812 -54.109375 C 1.921875 -41.78125 -1.65625 -19.152344 -3.679688 -1.121094 C -4.082031 2 5.125 0.0742188 5.320312 -1.523438 C 5.921875 -8.128906 6.480469 -12.523438 7.585938 -20.136719 C 9.800781 -24.5 13.449219 -28.726562 16.074219 -29.132812 C 18.851562 -29.554688 18.867188 -26.878906 18.535156 -24.476562 C 18.085938 -21.117188 16.621094 -13.226562 16.566406 -9.835938 C 16.464844 -4.945312 18.027344 -1.203125 24.421875 -2.308594 C 31.976562 -3.554688 36.371094 -13.226562 38.765625 -20.601562 C 39.113281 -21.589844 36.125 -22.875 35.859375 -21.816406 C 33.941406 -15.050781 29.941406 -8.578125 26.929688 -8.125 C 23.546875 -7.472656 25.738281 -15.21875 27.324219 -25.957031 C 28.339844 -32.378906 26.214844 -36.835938 19.949219 -35.984375 C 14.988281 -35.371094 10.757812 -30.125 8.292969 -26.515625 C 9.730469 -35.902344 11.65625 -47.707031 13.230469 -53.40625 C 13.4375 -55.558594 6.242188 -55.847656 4.882812 -54.109375 Z M 4.882812 -54.109375 "/></g></g></g><g fill="rgb(100%, 100%, 100%)" fill-opacity="1"><g transform="translate(56.531411, 209.875821)"><g><path d="M 39.410156 -45.941406 C 39.820312 -54.09375 34.433594 -58.859375 24.949219 -57.921875 C 16.027344 -56.902344 11.078125 -51.726562 11.234375 -44.113281 C 11.601562 -30.9375 29.078125 -28.296875 29.769531 -17.605469 C 30.160156 -11.90625 27.394531 -8.183594 21.960938 -7.589844 C 16.128906 -7.027344 11.15625 -12.234375 12.480469 -21.921875 C 12.199219 -24.167969 6.292969 -24.226562 5.429688 -22.308594 C 3.097656 -11.242188 7.828125 -0.335938 21.941406 -2 C 32.492188 -3.226562 38.988281 -9.222656 38.34375 -18.898438 C 37.597656 -31.316406 20.410156 -34.78125 19.96875 -44.71875 C 19.640625 -49.949219 22.691406 -51.980469 25.492188 -52.246094 C 29.367188 -52.726562 32.339844 -50.96875 32.5625 -45.332031 C 33.226562 -43.132812 38.921875 -43.519531 39.410156 -45.941406 Z M 39.410156 -45.941406 "/></g></g></g><g fill="rgb(100%, 100%, 100%)" fill-opacity="1"><g transform="translate(96.05173, 204.994728)"><g><path d="M 4.882812 -54.109375 C 1.921875 -41.78125 -1.65625 -19.152344 -3.679688 -1.121094 C -4.082031 2 5.125 0.0742188 5.320312 -1.523438 C 5.921875 -8.128906 6.480469 -12.523438 7.585938 -20.136719 C 9.800781 -24.5 13.449219 -28.726562 16.074219 -29.132812 C 18.851562 -29.554688 18.867188 -26.878906 18.535156 -24.476562 C 18.085938 -21.117188 16.621094 -13.226562 16.566406 -9.835938 C 16.464844 -4.945312 18.027344 -1.203125 24.421875 -2.308594 C 31.976562 -3.554688 36.371094 -13.226562 38.765625 -20.601562 C 39.113281 -21.589844 36.125 -22.875 35.859375 -21.816406 C 33.941406 -15.050781 29.941406 -8.578125 26.929688 -8.125 C 23.546875 -7.472656 25.738281 -15.21875 27.324219 -25.957031 C 28.339844 -32.378906 26.214844 -36.835938 19.949219 -35.984375 C 14.988281 -35.371094 10.757812 -30.125 8.292969 -26.515625 C 9.730469 -35.902344 11.65625 -47.707031 13.230469 -53.40625 C 13.4375 -55.558594 6.242188 -55.847656 4.882812 -54.109375 Z M 4.882812 -54.109375 "/></g></g></g><g fill="rgb(100%, 100%, 100%)" fill-opacity="1"><g transform="translate(126.892822, 201.185592)"><g><path d="M 15.625 -35.292969 C 6.519531 -34.480469 -0.832031 -27.121094 -1.671875 -16.710938 C -2.535156 -7.792969 2.683594 0.0625 14.511719 -1.003906 C 21.902344 -1.683594 30.886719 -5.386719 35.429688 -20.191406 C 35.703125 -21.167969 32.800781 -22.382812 32.449219 -21.398438 C 29.21875 -10.613281 21.339844 -6.882812 16 -6.777344 C 10.507812 -6.648438 7.25 -9.472656 7.101562 -14.488281 C 16.351562 -13.507812 23.378906 -17.128906 25.527344 -23.296875 C 27.773438 -29.316406 24.34375 -36.054688 15.625 -35.292969 Z M 15.300781 -29.664062 C 18.253906 -29.949219 18.675781 -27.171875 17.75 -24.460938 C 16.621094 -20.859375 12.996094 -18.363281 7.15625 -18.507812 C 7.863281 -24.261719 11.628906 -29.449219 15.300781 -29.664062 Z M 15.300781 -29.664062 "/></g></g></g><g fill="rgb(100%, 100%, 100%)" fill-opacity="1"><g transform="translate(154.401706, 197.788013)"><g><path d="M 33.835938 -21.648438 C 30.953125 -12.476562 26.9375 -8.046875 22.433594 -7.570312 C 19.023438 -7.148438 17.34375 -10.5625 16.839844 -15.929688 C 27.964844 -20.765625 30.257812 -31.511719 25.023438 -35.035156 C 21.230469 -37.714844 12.738281 -35.09375 8.136719 -27.128906 C 9.175781 -34.652344 11.742188 -48.265625 12.535156 -53.320312 C 12.324219 -55.65625 5.011719 -55.617188 4.261719 -54.03125 C 2.035156 -41.480469 -1.429688 -21.144531 -3.902344 -1.011719 C -3.867188 1.816406 4.289062 0.335938 4.835938 -1.621094 C 5.238281 -5.996094 5.855469 -10.558594 6.765625 -17.203125 C 7.648438 -24.078125 14.332031 -30.488281 17.875 -29.195312 C 21.542969 -28.152344 19.375 -21.511719 9.828125 -16.636719 C 10.601562 -3.355469 15.828125 -1.167969 20.710938 -1.769531 C 27.597656 -2.699219 33.355469 -10.257812 36.671875 -20.34375 C 37.023438 -21.332031 34.117188 -22.546875 33.835938 -21.648438 Z M 33.835938 -21.648438 "/></g></g></g><g fill="rgb(100%, 100%, 100%)" fill-opacity="1"><g transform="translate(183.15048, 194.237296)"><g><path d="M 6.140625 -38.839844 C 9.238281 -39.222656 11.171875 -41.429688 11.136719 -44.257812 C 11.1875 -47.019531 9.242188 -48.746094 6.453125 -48.402344 C 3.578125 -48.125 1.644531 -45.917969 1.527344 -43.070312 C 1.472656 -40.308594 3.582031 -38.523438 6.140625 -38.839844 Z M 4.96875 0.09375 C 13.007812 -1.054688 17.703125 -10.839844 20.097656 -18.21875 C 20.4375 -19.285156 17.523438 -20.574219 17.183594 -19.511719 C 15.332031 -12.832031 10.964844 -6.152344 7.398438 -5.714844 C 5.78125 -5.433594 5.601562 -7.535156 5.835938 -10.714844 C 6.347656 -16.128906 7.355469 -21.367188 9.046875 -32.511719 C 8.273438 -34.304688 1.804688 -34.449219 0.785156 -32.515625 C -0.769531 -22.800781 -1.855469 -16.292969 -2.660156 -8.796875 C -3.316406 -2.660156 -1.445312 1.042969 4.96875 0.09375 Z M 4.96875 0.09375 "/></g></g></g><g fill="rgb(100%, 100%, 100%)" fill-opacity="1"><g transform="translate(195.31572, 192.734787)"><g><path d="M 20.023438 -35.992188 C 14.902344 -35.4375 10.253906 -29.75 7.863281 -26.148438 C 8.285156 -28.484375 8.433594 -29.839844 8.824219 -32.40625 C 7.75 -34.710938 1.660156 -34.351562 0.628906 -32.496094 C -1.074219 -20.796875 -2.617188 -11.636719 -3.824219 -1.023438 C -3.355469 1.515625 4.289062 0.335938 4.933594 -1.476562 C 5.699219 -8.652344 6.0625 -12.707031 7.332031 -20.261719 C 9.722656 -24.492188 13.378906 -28.640625 16.082031 -29.054688 C 18.707031 -29.457031 18.636719 -26.851562 18.382812 -24.457031 C 18.074219 -21.195312 16.949219 -12.480469 16.808594 -9.785156 C 16.5 -4.632812 18.707031 -1.445312 24.578125 -2.328125 C 32.085938 -3.332031 36.730469 -13.507812 38.996094 -20.632812 C 39.269531 -21.609375 36.367188 -22.824219 36.09375 -21.847656 C 34.046875 -14.828125 30.183594 -8.527344 27.007812 -8.136719 C 25.070312 -7.894531 25.09375 -10.890625 25.359375 -13.832031 C 25.75 -17.660156 26.84375 -22.199219 27.253906 -25.871094 C 27.953125 -32.328125 25.925781 -36.640625 20.023438 -35.992188 Z M 20.023438 -35.992188 "/></g></g></g><g fill="rgb(100%, 100%, 100%)" fill-opacity="1"><g transform="translate(226.389286, 188.896939)"><g><path d="M 14.394531 -35.0625 C 5.820312 -32.507812 -2.144531 -22.472656 -2.570312 -11.878906 C -2.890625 -3.027344 1.957031 0.546875 7.605469 -0.230469 C 13.863281 -1.160156 16.679688 -6.386719 18.808594 -11.449219 C 18.585938 -5.601562 21.117188 -2.292969 24.839844 -2.753906 C 32.125 -3.652344 37.25 -11.839844 40.238281 -20.785156 C 40.585938 -21.773438 37.605469 -22.976562 37.332031 -22 C 35.375 -14.914062 30.757812 -8.992188 27.898438 -8.558594 C 26.117188 -8.339844 25.429688 -10.066406 25.804688 -14.046875 C 26.03125 -17.929688 26.855469 -22.75 27.34375 -25.800781 C 26.832031 -27.390625 20.894531 -28.308594 19.71875 -26.355469 C 18.3125 -16.109375 12.015625 -3.371094 7.757812 -6.625 C 5.753906 -8.1875 5.570312 -13.511719 7.351562 -18.847656 C 9.121094 -24.257812 12.894531 -28.738281 17.3125 -29.914062 C 20.820312 -30.820312 25.296875 -30.269531 28.789062 -28.105469 C 30.105469 -27.636719 32.84375 -31.59375 31.914062 -32.738281 C 27.027344 -36.621094 19.40625 -36.546875 14.394531 -35.0625 Z M 14.394531 -35.0625 "/></g></g></g><g fill="rgb(100%, 100%, 100%)" fill-opacity="1"><g transform="translate(258.780242, 184.896382)"><g><path d="M 4.882812 -54.109375 C 1.921875 -41.78125 -1.65625 -19.152344 -3.679688 -1.121094 C -4.082031 2 5.125 0.0742188 5.320312 -1.523438 C 5.921875 -8.128906 6.480469 -12.523438 7.585938 -20.136719 C 9.800781 -24.5 13.449219 -28.726562 16.074219 -29.132812 C 18.851562 -29.554688 18.867188 -26.878906 18.535156 -24.476562 C 18.085938 -21.117188 16.621094 -13.226562 16.566406 -9.835938 C 16.464844 -4.945312 18.027344 -1.203125 24.421875 -2.308594 C 31.976562 -3.554688 36.371094 -13.226562 38.765625 -20.601562 C 39.113281 -21.589844 36.125 -22.875 35.859375 -21.816406 C 33.941406 -15.050781 29.941406 -8.578125 26.929688 -8.125 C 23.546875 -7.472656 25.738281 -15.21875 27.324219 -25.957031 C 28.339844 -32.378906 26.214844 -36.835938 19.949219 -35.984375 C 14.988281 -35.371094 10.757812 -30.125 8.292969 -26.515625 C 9.730469 -35.902344 11.65625 -47.707031 13.230469 -53.40625 C 13.4375 -55.558594 6.242188 -55.847656 4.882812 -54.109375 Z M 4.882812 -54.109375 "/></g></g></g><g fill="rgb(45.098877%, 45.098877%, 45.098877%)" fill-opacity="1"><g transform="translate(72.915411, 247.340496)"><g><path d="M 27.167969 -47.105469 C 20.550781 -46.664062 15.699219 -43.109375 12.175781 -38.015625 C 10.605469 -40.023438 9.578125 -42.226562 9.191406 -43.816406 C 8.777344 -45.148438 5.511719 -44.558594 5.875 -43.152344 C 6.328125 -40.503906 7.972656 -37.371094 10.117188 -34.800781 C 7.523438 -29.824219 6.289062 -24.003906 6.605469 -18.378906 C 7.242188 -7.125 14.183594 -0.871094 23.390625 -2.257812 C 32.039062 -3.578125 36.992188 -8.34375 39.941406 -17.585938 C 40.222656 -18.375 37.890625 -19.410156 37.617188 -18.558594 C 35.15625 -10.953125 29.867188 -7.90625 25.738281 -7.207031 C 19.660156 -5.953125 14.707031 -9.371094 13.597656 -18.863281 C 13.160156 -22.398438 13.53125 -26.535156 14.699219 -30.332031 C 24.160156 -25.078125 35.039062 -29.253906 36.40625 -37.042969 C 37.660156 -43.175781 33.785156 -47.546875 27.167969 -47.105469 Z M 26.617188 -42.378906 C 29.300781 -42.585938 30.707031 -40.367188 29.84375 -37.679688 C 29.03125 -33.046875 21.648438 -31.128906 16.285156 -34.304688 C 18.570312 -38.742188 21.6875 -42.023438 26.617188 -42.378906 Z M 26.617188 -42.378906 "/></g></g></g><g fill="rgb(45.098877%, 45.098877%, 45.098877%)" fill-opacity="1"><g transform="translate(106.581859, 243.182405)"><g><path d="M 11.519531 -28.050781 C 4.65625 -26.007812 -1.71875 -17.980469 -2.054688 -9.503906 C -2.3125 -2.421875 1.566406 0.4375 6.082031 -0.183594 C 11.089844 -0.929688 13.34375 -5.109375 15.046875 -9.160156 C 14.871094 -4.480469 16.894531 -1.835938 19.871094 -2.203125 C 25.699219 -2.921875 29.800781 -9.472656 32.191406 -16.628906 C 32.472656 -17.417969 30.085938 -18.382812 29.867188 -17.601562 C 28.300781 -11.929688 24.605469 -7.195312 22.320312 -6.847656 C 20.894531 -6.671875 20.34375 -8.050781 20.644531 -11.238281 C 20.828125 -14.34375 21.484375 -18.203125 21.875 -20.640625 C 21.464844 -21.914062 16.71875 -22.648438 15.777344 -21.085938 C 14.648438 -12.886719 9.613281 -2.699219 6.207031 -5.300781 C 4.605469 -6.550781 4.457031 -10.8125 5.878906 -15.078125 C 7.296875 -19.410156 10.316406 -22.992188 13.851562 -23.933594 C 16.65625 -24.65625 20.238281 -24.21875 23.03125 -22.484375 C 24.085938 -22.113281 26.277344 -25.277344 25.53125 -26.191406 C 21.625 -29.296875 15.527344 -29.238281 11.519531 -28.050781 Z M 11.519531 -28.050781 "/></g></g></g><g fill="rgb(45.098877%, 45.098877%, 45.098877%)" fill-opacity="1"><g transform="translate(132.498125, 239.981528)"><g><path d="M 9.050781 -0.613281 C 12.839844 -1.019531 16.183594 -3.007812 18.652344 -5.953125 C 23.222656 -5.636719 28.644531 -7.125 31.632812 -16.558594 C 31.90625 -17.410156 29.464844 -18.304688 29.308594 -17.53125 C 27.457031 -11.132812 24.121094 -9.085938 20.875 -8.871094 C 24.921875 -17.367188 23.886719 -28.320312 15.316406 -28.394531 C 12.167969 -28.382812 8.917969 -26.660156 6.660156 -24.554688 C 7.632812 -30.464844 8.835938 -37.539062 10.144531 -42.738281 C 9.945312 -44.347656 4.691406 -44.582031 3.402344 -43.289062 C 1.796875 -36.921875 -2.1875 -19.246094 -0.386719 -10.277344 C 0.144531 -4.425781 2.285156 0.160156 9.050781 -0.613281 Z M 8.648438 -4.90625 C 3.308594 -4.816406 4.789062 -14.753906 5.988281 -19.8125 C 8.039062 -22.082031 10.339844 -23.8125 12.589844 -23.964844 C 17.828125 -24.359375 16.34375 -15.488281 15.230469 -11.765625 C 13.378906 -11.976562 12.179688 -9.4375 13.449219 -7.828125 C 12.390625 -6.1875 10.910156 -4.9375 8.648438 -4.90625 Z M 8.648438 -4.90625 "/></g></g></g><g fill="rgb(45.098877%, 45.098877%, 45.098877%)" fill-opacity="1"><g transform="translate(157.794369, 236.857228)"><g><path d="M 12.503906 -28.234375 C 5.21875 -27.585938 -0.664062 -21.699219 -1.335938 -13.367188 C -2.027344 -6.234375 2.144531 0.0507812 11.609375 -0.804688 C 17.523438 -1.347656 24.710938 -4.3125 28.347656 -16.152344 C 28.566406 -16.9375 26.242188 -17.910156 25.960938 -17.117188 C 23.375 -8.488281 17.070312 -5.507812 12.800781 -5.421875 C 8.40625 -5.320312 5.800781 -7.578125 5.679688 -11.59375 C 13.082031 -10.804688 18.703125 -13.703125 20.421875 -18.636719 C 22.21875 -23.453125 19.476562 -28.84375 12.503906 -28.234375 Z M 12.238281 -23.734375 C 14.601562 -23.960938 14.941406 -21.738281 14.203125 -19.570312 C 13.296875 -16.6875 10.398438 -14.691406 5.726562 -14.808594 C 6.289062 -19.410156 9.300781 -23.558594 12.238281 -23.734375 Z M 12.238281 -23.734375 "/></g></g></g><g fill="rgb(45.098877%, 45.098877%, 45.098877%)" fill-opacity="1"><g transform="translate(179.804542, 234.138785)"><g><path d="M 7.160156 -42.933594 C 2.777344 -39.183594 0.0976562 -30.289062 -0.90625 -21.101562 C -2.179688 -9.488281 -1.046875 -0.3125 7.449219 -0.351562 C 15.996094 -0.464844 19.335938 -7.550781 22.023438 -15.371094 C 22.242188 -16.15625 19.917969 -17.128906 19.691406 -16.40625 C 17.855469 -10.890625 14.09375 -5.140625 9.523438 -4.953125 C 5.515625 -4.773438 4.453125 -9.300781 5.042969 -15.730469 C 12.753906 -20.082031 17.28125 -26.746094 18.460938 -34.007812 C 20.320312 -43.929688 12.679688 -47.707031 7.160156 -42.933594 Z M 11.859375 -40.054688 C 13.613281 -40.144531 13.480469 -36.097656 12.019531 -31.132812 C 10.8125 -27.144531 8.441406 -22.886719 5.429688 -20.25 C 5.996094 -24.347656 7 -28.941406 7.726562 -31.738281 C 8.910156 -36.414062 10.179688 -39.910156 11.859375 -40.054688 Z M 11.859375 -40.054688 "/></g></g></g><g fill="rgb(45.098877%, 45.098877%, 45.098877%)" fill-opacity="1"><g transform="translate(195.49056, 232.20143)"><g><path d="M 12.503906 -28.234375 C 5.21875 -27.585938 -0.664062 -21.699219 -1.335938 -13.367188 C -2.027344 -6.234375 2.144531 0.0507812 11.609375 -0.804688 C 17.523438 -1.347656 24.710938 -4.3125 28.347656 -16.152344 C 28.566406 -16.9375 26.242188 -17.910156 25.960938 -17.117188 C 23.375 -8.488281 17.070312 -5.507812 12.800781 -5.421875 C 8.40625 -5.320312 5.800781 -7.578125 5.679688 -11.59375 C 13.082031 -10.804688 18.703125 -13.703125 20.421875 -18.636719 C 22.21875 -23.453125 19.476562 -28.84375 12.503906 -28.234375 Z M 12.238281 -23.734375 C 14.601562 -23.960938 14.941406 -21.738281 14.203125 -19.570312 C 13.296875 -16.6875 10.398438 -14.691406 5.726562 -14.808594 C 6.289062 -19.410156 9.300781 -23.558594 12.238281 -23.734375 Z M 12.238281 -23.734375 "/></g></g></g><g fill="rgb(45.098877%, 45.098877%, 45.098877%)" fill-opacity="1"><g transform="translate(217.500734, 229.482987)"><g><path d="M 0.324219 -10.617188 C 2.207031 -15.757812 3.222656 -20.289062 3.839844 -24.457031 C 5.335938 -23.070312 8.128906 -21.335938 6.972656 -18.992188 C 4.941406 -15.027344 2.78125 -10.605469 3.273438 -6.636719 C 3.746094 -2.792969 6.449219 -0.292969 11.292969 -0.828125 C 18.554688 -1.660156 22.746094 -7.972656 25.058594 -15.75 C 25.285156 -16.46875 23.015625 -17.511719 22.792969 -16.789062 C 20.339844 -9.121094 16.082031 -5.890625 13.167969 -5.527344 C 11.183594 -5.285156 10.332031 -6.5625 10.234375 -8.378906 C 10.058594 -11.3125 11.816406 -14.929688 13.804688 -18.199219 C 16.414062 -22.550781 9.730469 -25.6875 5.816406 -28.855469 C 6.960938 -37.9375 -4.894531 -33.011719 1.527344 -25.871094 C 0.703125 -20.292969 -0.191406 -16.847656 -2.050781 -11.519531 C -2.386719 -10.660156 -0.015625 -9.816406 0.324219 -10.617188 Z M 0.324219 -10.617188 "/></g></g></g><g fill="rgb(45.098877%, 45.098877%, 45.098877%)" fill-opacity="1"><g transform="translate(236.224825, 227.170404)"><g><path d="M 12.503906 -28.234375 C 5.21875 -27.585938 -0.664062 -21.699219 -1.335938 -13.367188 C -2.027344 -6.234375 2.144531 0.0507812 11.609375 -0.804688 C 17.523438 -1.347656 24.710938 -4.3125 28.347656 -16.152344 C 28.566406 -16.9375 26.242188 -17.910156 25.960938 -17.117188 C 23.375 -8.488281 17.070312 -5.507812 12.800781 -5.421875 C 8.40625 -5.320312 5.800781 -7.578125 5.679688 -11.59375 C 13.082031 -10.804688 18.703125 -13.703125 20.421875 -18.636719 C 22.21875 -23.453125 19.476562 -28.84375 12.503906 -28.234375 Z M 12.238281 -23.734375 C 14.601562 -23.960938 14.941406 -21.738281 14.203125 -19.570312 C 13.296875 -16.6875 10.398438 -14.691406 5.726562 -14.808594 C 6.289062 -19.410156 9.300781 -23.558594 12.238281 -23.734375 Z M 12.238281 -23.734375 "/></g></g></g><g fill="rgb(45.098877%, 45.098877%, 45.098877%)" fill-opacity="1"><g transform="translate(258.234999, 224.451961)"><g><path d="M 4.910156 -31.074219 C 7.390625 -31.378906 8.9375 -33.144531 8.910156 -35.40625 C 8.953125 -37.617188 7.394531 -38.996094 5.164062 -38.722656 C 2.863281 -38.5 1.316406 -36.738281 1.222656 -34.457031 C 1.179688 -32.25 2.867188 -30.820312 4.910156 -31.074219 Z M 3.976562 0.0742188 C 10.410156 -0.84375 14.164062 -8.671875 16.078125 -14.574219 C 16.351562 -15.425781 14.019531 -16.460938 13.746094 -15.609375 C 12.265625 -10.265625 8.769531 -4.921875 5.917969 -4.570312 C 4.625 -4.347656 4.480469 -6.03125 4.667969 -8.570312 C 5.078125 -12.902344 5.882812 -17.09375 7.238281 -26.011719 C 6.621094 -27.445312 1.441406 -27.5625 0.628906 -26.011719 C -0.617188 -18.242188 -1.484375 -13.035156 -2.128906 -7.039062 C -2.65625 -2.128906 -1.15625 0.835938 3.976562 0.0742188 Z M 3.976562 0.0742188 "/></g></g></g><g fill="rgb(45.098877%, 45.098877%, 45.098877%)" fill-opacity="1"><g transform="translate(267.968876, 223.249745)"><g><path d="M 0.324219 -10.617188 C 2.207031 -15.757812 3.222656 -20.289062 3.839844 -24.457031 C 5.335938 -23.070312 8.128906 -21.335938 6.972656 -18.992188 C 4.941406 -15.027344 2.78125 -10.605469 3.273438 -6.636719 C 3.746094 -2.792969 6.449219 -0.292969 11.292969 -0.828125 C 18.554688 -1.660156 22.746094 -7.972656 25.058594 -15.75 C 25.285156 -16.46875 23.015625 -17.511719 22.792969 -16.789062 C 20.339844 -9.121094 16.082031 -5.890625 13.167969 -5.527344 C 11.183594 -5.285156 10.332031 -6.5625 10.234375 -8.378906 C 10.058594 -11.3125 11.816406 -14.929688 13.804688 -18.199219 C 16.414062 -22.550781 9.730469 -25.6875 5.816406 -28.855469 C 6.960938 -37.9375 -4.894531 -33.011719 1.527344 -25.871094 C 0.703125 -20.292969 -0.191406 -16.847656 -2.050781 -11.519531 C -2.386719 -10.660156 -0.015625 -9.816406 0.324219 -10.617188 Z M 0.324219 -10.617188 "/></g></g></g><g fill="rgb(45.098877%, 45.098877%, 45.098877%)" fill-opacity="1"><g transform="translate(286.692967, 220.937162)"><g><path d="M 12.363281 -28.34375 C 5.0625 -27.316406 -0.882812 -20.917969 -1.5625 -12.144531 C -2.257812 -2.492188 3.054688 0.253906 9.066406 -0.492188 C 13.160156 -0.996094 16.441406 -2.976562 18.894531 -6.046875 C 23.535156 -5.675781 28.691406 -7.257812 31.632812 -16.558594 C 31.90625 -17.410156 29.589844 -18.320312 29.308594 -17.53125 C 27.417969 -10.941406 24.003906 -9.007812 20.929688 -8.941406 C 25.125 -18.273438 23.375 -29.894531 12.363281 -28.34375 Z M 12.101562 -23.839844 C 16.71875 -24.664062 16.886719 -17.699219 15.175781 -11.695312 C 13.390625 -11.851562 12.0625 -9.359375 13.464844 -7.707031 C 12.507812 -6.265625 11.066406 -5.207031 9.515625 -5.015625 C 5.671875 -4.539062 5.304688 -9.027344 5.574219 -12.964844 C 5.929688 -17.730469 8.464844 -23.203125 12.101562 -23.839844 Z M 12.101562 -23.839844 "/></g></g></g><g fill="rgb(100%, 100%, 100%)" fill-opacity="1"><g transform="translate(74.304668, 246.329635)"><g><path d="M 27.167969 -47.105469 C 20.550781 -46.664062 15.699219 -43.109375 12.175781 -38.015625 C 10.605469 -40.023438 9.578125 -42.226562 9.191406 -43.816406 C 8.777344 -45.148438 5.511719 -44.558594 5.875 -43.152344 C 6.328125 -40.503906 7.972656 -37.371094 10.117188 -34.800781 C 7.523438 -29.824219 6.289062 -24.003906 6.605469 -18.378906 C 7.242188 -7.125 14.183594 -0.871094 23.390625 -2.257812 C 32.039062 -3.578125 36.992188 -8.34375 39.941406 -17.585938 C 40.222656 -18.375 37.890625 -19.410156 37.617188 -18.558594 C 35.15625 -10.953125 29.867188 -7.90625 25.738281 -7.207031 C 19.660156 -5.953125 14.707031 -9.371094 13.597656 -18.863281 C 13.160156 -22.398438 13.53125 -26.535156 14.699219 -30.332031 C 24.160156 -25.078125 35.039062 -29.253906 36.40625 -37.042969 C 37.660156 -43.175781 33.785156 -47.546875 27.167969 -47.105469 Z M 26.617188 -42.378906 C 29.300781 -42.585938 30.707031 -40.367188 29.84375 -37.679688 C 29.03125 -33.046875 21.648438 -31.128906 16.285156 -34.304688 C 18.570312 -38.742188 21.6875 -42.023438 26.617188 -42.378906 Z M 26.617188 -42.378906 "/></g></g></g><g fill="rgb(100%, 100%, 100%)" fill-opacity="1"><g transform="translate(107.971116, 242.171545)"><g><path d="M 11.519531 -28.050781 C 4.65625 -26.007812 -1.71875 -17.980469 -2.054688 -9.503906 C -2.3125 -2.421875 1.566406 0.4375 6.082031 -0.183594 C 11.089844 -0.929688 13.34375 -5.109375 15.046875 -9.160156 C 14.871094 -4.480469 16.894531 -1.835938 19.871094 -2.203125 C 25.699219 -2.921875 29.800781 -9.472656 32.191406 -16.628906 C 32.472656 -17.417969 30.085938 -18.382812 29.867188 -17.601562 C 28.300781 -11.929688 24.605469 -7.195312 22.320312 -6.847656 C 20.894531 -6.671875 20.34375 -8.050781 20.644531 -11.238281 C 20.828125 -14.34375 21.484375 -18.203125 21.875 -20.640625 C 21.464844 -21.914062 16.71875 -22.648438 15.777344 -21.085938 C 14.648438 -12.886719 9.613281 -2.699219 6.207031 -5.300781 C 4.605469 -6.550781 4.457031 -10.8125 5.878906 -15.078125 C 7.296875 -19.410156 10.316406 -22.992188 13.851562 -23.933594 C 16.65625 -24.65625 20.238281 -24.21875 23.03125 -22.484375 C 24.085938 -22.113281 26.277344 -25.277344 25.53125 -26.191406 C 21.625 -29.296875 15.527344 -29.238281 11.519531 -28.050781 Z M 11.519531 -28.050781 "/></g></g></g><g fill="rgb(100%, 100%, 100%)" fill-opacity="1"><g transform="translate(133.887381, 238.970667)"><g><path d="M 9.050781 -0.613281 C 12.839844 -1.019531 16.183594 -3.007812 18.652344 -5.953125 C 23.222656 -5.636719 28.644531 -7.125 31.632812 -16.558594 C 31.90625 -17.410156 29.464844 -18.304688 29.308594 -17.53125 C 27.457031 -11.132812 24.121094 -9.085938 20.875 -8.871094 C 24.921875 -17.367188 23.886719 -28.320312 15.316406 -28.394531 C 12.167969 -28.382812 8.917969 -26.660156 6.660156 -24.554688 C 7.632812 -30.464844 8.835938 -37.539062 10.144531 -42.738281 C 9.945312 -44.347656 4.691406 -44.582031 3.402344 -43.289062 C 1.796875 -36.921875 -2.1875 -19.246094 -0.386719 -10.277344 C 0.144531 -4.425781 2.285156 0.160156 9.050781 -0.613281 Z M 8.648438 -4.90625 C 3.308594 -4.816406 4.789062 -14.753906 5.988281 -19.8125 C 8.039062 -22.082031 10.339844 -23.8125 12.589844 -23.964844 C 17.828125 -24.359375 16.34375 -15.488281 15.230469 -11.765625 C 13.378906 -11.976562 12.179688 -9.4375 13.449219 -7.828125 C 12.390625 -6.1875 10.910156 -4.9375 8.648438 -4.90625 Z M 8.648438 -4.90625 "/></g></g></g><g fill="rgb(100%, 100%, 100%)" fill-opacity="1"><g transform="translate(159.183625, 235.846367)"><g><path d="M 12.503906 -28.234375 C 5.21875 -27.585938 -0.664062 -21.699219 -1.335938 -13.367188 C -2.027344 -6.234375 2.144531 0.0507812 11.609375 -0.804688 C 17.523438 -1.347656 24.710938 -4.3125 28.347656 -16.152344 C 28.566406 -16.9375 26.242188 -17.910156 25.960938 -17.117188 C 23.375 -8.488281 17.070312 -5.507812 12.800781 -5.421875 C 8.40625 -5.320312 5.800781 -7.578125 5.679688 -11.59375 C 13.082031 -10.804688 18.703125 -13.703125 20.421875 -18.636719 C 22.21875 -23.453125 19.476562 -28.84375 12.503906 -28.234375 Z M 12.238281 -23.734375 C 14.601562 -23.960938 14.941406 -21.738281 14.203125 -19.570312 C 13.296875 -16.6875 10.398438 -14.691406 5.726562 -14.808594 C 6.289062 -19.410156 9.300781 -23.558594 12.238281 -23.734375 Z M 12.238281 -23.734375 "/></g></g></g><g fill="rgb(100%, 100%, 100%)" fill-opacity="1"><g transform="translate(181.193799, 233.127925)"><g><path d="M 7.160156 -42.933594 C 2.777344 -39.183594 0.0976562 -30.289062 -0.90625 -21.101562 C -2.179688 -9.488281 -1.046875 -0.3125 7.449219 -0.351562 C 15.996094 -0.464844 19.335938 -7.550781 22.023438 -15.371094 C 22.242188 -16.15625 19.917969 -17.128906 19.691406 -16.40625 C 17.855469 -10.890625 14.09375 -5.140625 9.523438 -4.953125 C 5.515625 -4.773438 4.453125 -9.300781 5.042969 -15.730469 C 12.753906 -20.082031 17.28125 -26.746094 18.460938 -34.007812 C 20.320312 -43.929688 12.679688 -47.707031 7.160156 -42.933594 Z M 11.859375 -40.054688 C 13.613281 -40.144531 13.480469 -36.097656 12.019531 -31.132812 C 10.8125 -27.144531 8.441406 -22.886719 5.429688 -20.25 C 5.996094 -24.347656 7 -28.941406 7.726562 -31.738281 C 8.910156 -36.414062 10.179688 -39.910156 11.859375 -40.054688 Z M 11.859375 -40.054688 "/></g></g></g><g fill="rgb(100%, 100%, 100%)" fill-opacity="1"><g transform="translate(196.879817, 231.190569)"><g><path d="M 12.503906 -28.234375 C 5.21875 -27.585938 -0.664062 -21.699219 -1.335938 -13.367188 C -2.027344 -6.234375 2.144531 0.0507812 11.609375 -0.804688 C 17.523438 -1.347656 24.710938 -4.3125 28.347656 -16.152344 C 28.566406 -16.9375 26.242188 -17.910156 25.960938 -17.117188 C 23.375 -8.488281 17.070312 -5.507812 12.800781 -5.421875 C 8.40625 -5.320312 5.800781 -7.578125 5.679688 -11.59375 C 13.082031 -10.804688 18.703125 -13.703125 20.421875 -18.636719 C 22.21875 -23.453125 19.476562 -28.84375 12.503906 -28.234375 Z M 12.238281 -23.734375 C 14.601562 -23.960938 14.941406 -21.738281 14.203125 -19.570312 C 13.296875 -16.6875 10.398438 -14.691406 5.726562 -14.808594 C 6.289062 -19.410156 9.300781 -23.558594 12.238281 -23.734375 Z M 12.238281 -23.734375 "/></g></g></g><g fill="rgb(100%, 100%, 100%)" fill-opacity="1"><g transform="translate(218.88999, 228.472127)"><g><path d="M 0.324219 -10.617188 C 2.207031 -15.757812 3.222656 -20.289062 3.839844 -24.457031 C 5.335938 -23.070312 8.128906 -21.335938 6.972656 -18.992188 C 4.941406 -15.027344 2.78125 -10.605469 3.273438 -6.636719 C 3.746094 -2.792969 6.449219 -0.292969 11.292969 -0.828125 C 18.554688 -1.660156 22.746094 -7.972656 25.058594 -15.75 C 25.285156 -16.46875 23.015625 -17.511719 22.792969 -16.789062 C 20.339844 -9.121094 16.082031 -5.890625 13.167969 -5.527344 C 11.183594 -5.285156 10.332031 -6.5625 10.234375 -8.378906 C 10.058594 -11.3125 11.816406 -14.929688 13.804688 -18.199219 C 16.414062 -22.550781 9.730469 -25.6875 5.816406 -28.855469 C 6.960938 -37.9375 -4.894531 -33.011719 1.527344 -25.871094 C 0.703125 -20.292969 -0.191406 -16.847656 -2.050781 -11.519531 C -2.386719 -10.660156 -0.015625 -9.816406 0.324219 -10.617188 Z M 0.324219 -10.617188 "/></g></g></g><g fill="rgb(100%, 100%, 100%)" fill-opacity="1"><g transform="translate(237.614082, 226.159543)"><g><path d="M 12.503906 -28.234375 C 5.21875 -27.585938 -0.664062 -21.699219 -1.335938 -13.367188 C -2.027344 -6.234375 2.144531 0.0507812 11.609375 -0.804688 C 17.523438 -1.347656 24.710938 -4.3125 28.347656 -16.152344 C 28.566406 -16.9375 26.242188 -17.910156 25.960938 -17.117188 C 23.375 -8.488281 17.070312 -5.507812 12.800781 -5.421875 C 8.40625 -5.320312 5.800781 -7.578125 5.679688 -11.59375 C 13.082031 -10.804688 18.703125 -13.703125 20.421875 -18.636719 C 22.21875 -23.453125 19.476562 -28.84375 12.503906 -28.234375 Z M 12.238281 -23.734375 C 14.601562 -23.960938 14.941406 -21.738281 14.203125 -19.570312 C 13.296875 -16.6875 10.398438 -14.691406 5.726562 -14.808594 C 6.289062 -19.410156 9.300781 -23.558594 12.238281 -23.734375 Z M 12.238281 -23.734375 "/></g></g></g><g fill="rgb(100%, 100%, 100%)" fill-opacity="1"><g transform="translate(259.624255, 223.441101)"><g><path d="M 4.910156 -31.074219 C 7.390625 -31.378906 8.9375 -33.144531 8.910156 -35.40625 C 8.953125 -37.617188 7.394531 -38.996094 5.164062 -38.722656 C 2.863281 -38.5 1.316406 -36.738281 1.222656 -34.457031 C 1.179688 -32.25 2.867188 -30.820312 4.910156 -31.074219 Z M 3.976562 0.0742188 C 10.410156 -0.84375 14.164062 -8.671875 16.078125 -14.574219 C 16.351562 -15.425781 14.019531 -16.460938 13.746094 -15.609375 C 12.265625 -10.265625 8.769531 -4.921875 5.917969 -4.570312 C 4.625 -4.347656 4.480469 -6.03125 4.667969 -8.570312 C 5.078125 -12.902344 5.882812 -17.09375 7.238281 -26.011719 C 6.621094 -27.445312 1.441406 -27.5625 0.628906 -26.011719 C -0.617188 -18.242188 -1.484375 -13.035156 -2.128906 -7.039062 C -2.65625 -2.128906 -1.15625 0.835938 3.976562 0.0742188 Z M 3.976562 0.0742188 "/></g></g></g><g fill="rgb(100%, 100%, 100%)" fill-opacity="1"><g transform="translate(269.358133, 222.238885)"><g><path d="M 0.324219 -10.617188 C 2.207031 -15.757812 3.222656 -20.289062 3.839844 -24.457031 C 5.335938 -23.070312 8.128906 -21.335938 6.972656 -18.992188 C 4.941406 -15.027344 2.78125 -10.605469 3.273438 -6.636719 C 3.746094 -2.792969 6.449219 -0.292969 11.292969 -0.828125 C 18.554688 -1.660156 22.746094 -7.972656 25.058594 -15.75 C 25.285156 -16.46875 23.015625 -17.511719 22.792969 -16.789062 C 20.339844 -9.121094 16.082031 -5.890625 13.167969 -5.527344 C 11.183594 -5.285156 10.332031 -6.5625 10.234375 -8.378906 C 10.058594 -11.3125 11.816406 -14.929688 13.804688 -18.199219 C 16.414062 -22.550781 9.730469 -25.6875 5.816406 -28.855469 C 6.960938 -37.9375 -4.894531 -33.011719 1.527344 -25.871094 C 0.703125 -20.292969 -0.191406 -16.847656 -2.050781 -11.519531 C -2.386719 -10.660156 -0.015625 -9.816406 0.324219 -10.617188 Z M 0.324219 -10.617188 "/></g></g></g><g fill="rgb(100%, 100%, 100%)" fill-opacity="1"><g transform="translate(288.082224, 219.926301)"><g><path d="M 12.363281 -28.34375 C 5.0625 -27.316406 -0.882812 -20.917969 -1.5625 -12.144531 C -2.257812 -2.492188 3.054688 0.253906 9.066406 -0.492188 C 13.160156 -0.996094 16.441406 -2.976562 18.894531 -6.046875 C 23.535156 -5.675781 28.691406 -7.257812 31.632812 -16.558594 C 31.90625 -17.410156 29.589844 -18.320312 29.308594 -17.53125 C 27.417969 -10.941406 24.003906 -9.007812 20.929688 -8.941406 C 25.125 -18.273438 23.375 -29.894531 12.363281 -28.34375 Z M 12.101562 -23.839844 C 16.71875 -24.664062 16.886719 -17.699219 15.175781 -11.695312 C 13.390625 -11.851562 12.0625 -9.359375 13.464844 -7.707031 C 12.507812 -6.265625 11.066406 -5.207031 9.515625 -5.015625 C 5.671875 -4.539062 5.304688 -9.027344 5.574219 -12.964844 C 5.929688 -17.730469 8.464844 -23.203125 12.101562 -23.839844 Z M 12.101562 -23.839844 "/></g></g></g><path fill="rgb(100%, 100%, 100%)" d="M 187.382812 330.980469 C 148.203125 330.980469 111.316406 315.730469 83.632812 287.988281 C 55.890625 260.308594 40.644531 223.417969 40.644531 184.238281 C 40.644531 145.0625 55.890625 108.171875 83.632812 80.488281 C 111.316406 52.75 148.203125 37.5 187.382812 37.5 C 226.558594 37.5 263.449219 52.75 291.132812 80.488281 C 318.875 108.230469 334.121094 145.0625 334.121094 184.238281 C 334.121094 223.417969 318.875 260.308594 291.132812 287.988281 C 263.449219 315.730469 226.558594 330.980469 187.382812 330.980469 Z M 187.382812 46.296875 C 150.550781 46.296875 115.890625 60.667969 89.847656 86.707031 C 63.808594 112.746094 49.441406 147.410156 49.441406 184.238281 C 49.441406 221.070312 63.808594 255.734375 89.847656 281.773438 C 115.890625 307.8125 150.550781 322.183594 187.382812 322.183594 C 224.214844 322.183594 258.875 307.8125 284.914062 281.773438 C 310.957031 255.734375 325.324219 221.070312 325.324219 184.238281 C 325.324219 147.410156 310.957031 112.746094 284.914062 86.707031 C 258.875 60.667969 224.214844 46.296875 187.382812 46.296875 Z M 187.382812 46.296875 " fill-opacity="1" fill-rule="nonzero"/></svg>