<svg width="82" height="57" viewBox="0 0 82 57" fill="none" xmlns="http://www.w3.org/2000/svg">
<rect width="82" height="57" fill="white"/>
<path d="M20.5974 25.121C20.6871 23.8813 19.5083 23.1572 17.4352 23.2988C15.4839 23.4547 14.4012 24.2411 14.4358 25.3989C14.5166 27.401 18.3385 27.8027 18.4897 29.4281C18.5756 30.2938 17.9695 30.8602 16.7818 30.9511C15.5057 31.0366 14.4192 30.2439 14.7087 28.7726C14.6472 28.4306 13.3557 28.4217 13.1661 28.7138C12.6562 30.3953 13.6914 32.0537 16.7767 31.7998C19.0842 31.6137 20.5051 30.7026 20.3642 29.2313C20.2015 27.344 16.4436 26.8168 16.3462 25.3063C16.2744 24.5119 16.942 24.2028 17.5544 24.1627C18.4013 24.0897 19.0509 24.3569 19.1009 25.2137C19.2456 25.5485 20.491 25.4889 20.5974 25.121Z" fill="#A6A6A6"/>
<path d="M21.6903 23.1375C21.0433 25.0113 20.2604 28.4509 19.8184 31.1923C19.73 31.6661 21.7441 31.374 21.7864 31.1308C21.9183 30.1271 22.0401 29.4591 22.2822 28.3013C22.7665 27.6378 23.5635 26.9956 24.1375 26.9342C24.7461 26.8701 24.7499 27.2762 24.6769 27.6413C24.5782 28.1517 24.2579 29.3522 24.2464 29.867C24.2233 30.6107 24.5654 31.1798 25.9633 31.0115C27.6161 30.8218 28.577 29.3522 29.0998 28.2301C29.1766 28.0804 28.5219 27.8854 28.4655 28.0457C28.0453 29.0744 27.1715 30.0585 26.5116 30.1271C25.7723 30.2268 26.2515 29.0494 26.5975 27.4169C26.8204 26.4408 26.3566 25.763 24.9857 25.8931C23.9004 25.9857 22.9754 26.7828 22.436 27.3314C22.7512 25.9055 23.1714 24.1109 23.5173 23.2443C23.5622 22.9166 21.9875 22.872 21.6903 23.1375Z" fill="#A6A6A6"/>
<path d="M30.7859 25.4172C28.7935 25.5401 27.1869 26.6587 27.0024 28.2423C26.814 29.5978 27.9556 30.7912 30.5412 30.6291C32.1581 30.5258 34.1235 29.9629 35.1165 27.7132C35.1767 27.5636 34.5412 27.3792 34.4644 27.5298C33.7584 29.1685 32.0351 29.7349 30.8679 29.7519C29.6674 29.7715 28.9537 29.3422 28.9217 28.5789C30.9435 28.7285 32.481 28.1781 32.9512 27.2412C33.4419 26.3256 32.6924 25.3014 30.7859 25.4172ZM30.7141 26.2722C31.3599 26.2294 31.4521 26.6516 31.251 27.064C31.0037 27.6117 30.2106 27.9902 28.9332 27.9679C29.0882 27.0942 29.9108 26.306 30.7141 26.2722Z" fill="#A6A6A6"/>
<path d="M40.7848 26.9749C40.1544 28.3687 39.2767 29.042 38.2914 29.115C37.5445 29.1792 37.178 28.6599 37.0678 27.8441C39.4997 27.1093 40.0019 25.475 38.8565 24.9398C38.0275 24.5319 36.171 24.9309 35.1639 26.1421C35.392 24.9977 35.9532 22.9288 36.1261 22.1601C36.08 21.8048 34.481 21.811 34.3183 22.0524C33.8301 23.9601 33.0729 27.0506 32.5322 30.1116C32.5399 30.5418 34.3234 30.3165 34.4426 30.019C34.531 29.3537 34.6655 28.6608 34.8641 27.6508C35.0576 26.6052 36.5195 25.6309 37.2933 25.8268C38.0967 25.9854 37.6213 26.9953 35.5342 27.7363C35.7033 29.7554 36.8462 30.0876 37.9135 29.9967C39.4202 29.8551 40.6784 28.7062 41.4049 27.1726C41.4805 27.023 40.8463 26.8386 40.7848 26.9749Z" fill="#A6A6A6"/>
<path d="M41.0154 23.8213C41.6932 23.7634 42.116 23.4276 42.1083 22.9984C42.1185 22.578 41.6944 22.3161 41.0833 22.3678C40.4555 22.4106 40.0327 22.7454 40.007 23.1783C39.9942 23.5986 40.4555 23.8694 41.0154 23.8213ZM40.7591 29.7404C42.5183 29.5658 43.5433 28.0776 44.0673 26.9563C44.1416 26.7942 43.5049 26.5983 43.4305 26.7604C43.0257 27.7757 42.0699 28.791 41.2909 28.8569C40.9372 28.8996 40.8975 28.5799 40.9488 28.0972C41.0602 27.2743 41.2806 26.478 41.6509 24.7832C41.4818 24.5106 40.0673 24.4893 39.8443 24.7832C39.5048 26.2598 39.2665 27.2484 39.0909 28.3884C38.9462 29.3218 39.3562 29.8847 40.7591 29.7404Z" fill="#A6A6A6"/>
<path d="M46.7131 24.0274C45.592 24.1111 44.5759 24.9759 44.0532 25.5237C44.1454 25.1692 44.1775 24.9626 44.2633 24.5725C44.0289 24.2216 42.6964 24.2768 42.4709 24.5591C42.0993 26.3377 41.761 27.7297 41.4971 29.3427C41.5996 29.7292 43.2716 29.5493 43.4126 29.2741C43.5804 28.1831 43.6599 27.5668 43.9366 26.4187C44.4594 25.7757 45.2589 25.1443 45.8508 25.0819C46.4248 25.0214 46.4094 25.4168 46.353 25.7802C46.2864 26.2771 46.0404 27.6015 46.0097 28.0103C45.943 28.794 46.4248 29.2785 47.7086 29.1449C49.3499 28.9918 50.3659 27.4456 50.8618 26.3626C50.922 26.2139 50.2865 26.0287 50.2263 26.1774C49.7791 27.2444 48.9348 28.2027 48.239 28.2614C47.8162 28.298 47.8214 27.8429 47.879 27.3958C47.9649 26.8142 48.2032 26.1239 48.2941 25.5664C48.4466 24.5841 48.0033 23.9286 46.7131 24.0274Z" fill="#A6A6A6"/>
<path d="M52.2788 23.5848C50.4031 23.9731 48.6606 25.4978 48.5683 27.109C48.4979 28.4538 49.5575 28.9971 50.7926 28.8795C52.161 28.7379 52.7772 27.9435 53.2423 27.174C53.1936 28.0628 53.7484 28.566 54.562 28.4957C56.1546 28.3594 57.2757 27.1143 57.9291 25.7552C58.006 25.6047 57.3539 25.4212 57.2936 25.57C56.8657 26.6476 55.8561 27.5472 55.2308 27.6131C54.8413 27.6469 54.6914 27.3842 54.7721 26.7794C54.8234 26.189 55.0028 25.456 55.1091 24.992C54.9976 24.7506 53.6997 24.6108 53.4422 24.9082C53.1347 26.4659 51.7574 28.4022 50.8259 27.907C50.389 27.6701 50.348 26.8596 50.7375 26.0491C51.1244 25.2262 51.9495 24.5458 52.9169 24.3676C53.6831 24.2296 54.662 24.3124 55.4256 24.6419C55.7139 24.7132 56.3122 24.1111 56.1098 23.9375C55.0412 23.347 53.373 23.3594 52.2788 23.5848Z" fill="#A6A6A6"/>
<path d="M57.2821 20.0808C56.6351 21.9547 55.8522 25.3943 55.4102 28.1356C55.3218 28.6094 57.3346 28.3173 57.3782 28.0742C57.5089 27.0704 57.6319 26.4025 57.8728 25.2447C58.3571 24.5811 59.1553 23.939 59.7293 23.8776C60.3379 23.8134 60.3405 24.2196 60.2687 24.5847C60.1688 25.095 59.8485 26.2956 59.8382 26.8104C59.8152 27.5541 60.156 28.1232 61.5551 27.9548C63.2079 27.7651 64.1688 26.2956 64.6916 25.1734C64.7685 25.0238 64.1137 24.8287 64.0561 24.9891C63.6371 26.0177 62.762 27.0019 62.1035 27.0704C61.3642 27.1702 61.8434 25.9928 62.1893 24.3603C62.4122 23.3841 61.9472 22.7064 60.5762 22.8364C59.4923 22.929 58.5672 23.7261 58.0278 24.2748C58.3417 22.8489 58.7632 21.0543 59.1079 20.1877C59.154 19.8599 57.5794 19.8154 57.2821 20.0808Z" fill="#A6A6A6"/>
<path d="M20.9779 24.927C21.0676 23.6881 19.8888 22.9631 17.8145 23.1056C15.8644 23.2606 14.7818 24.0479 14.8164 25.2049C14.8958 27.2079 18.719 27.6086 18.8702 29.2349C18.9548 30.1006 18.35 30.6671 17.161 30.757C15.8862 30.8425 14.7984 30.0507 15.088 28.5785C15.0278 28.2374 13.735 28.2285 13.5466 28.5198C13.0367 30.2021 14.0707 31.8596 17.1572 31.6058C19.4647 31.4205 20.8856 30.5085 20.7447 29.0372C20.582 27.15 16.8228 26.6236 16.7267 25.1131C16.6537 24.3178 17.3225 24.0087 17.9349 23.9687C18.7818 23.8956 19.4314 24.1628 19.4801 25.0196C19.6262 25.3545 20.8715 25.2948 20.9779 24.927Z" fill="#FFA500"/>
<path d="M22.0708 22.9454C21.4225 24.8193 20.6409 28.2598 20.1976 31.0002C20.1105 31.4749 22.1233 31.1819 22.1656 30.9388C22.2976 29.935 22.4193 29.2671 22.6614 28.1101C23.1458 27.4457 23.944 26.8036 24.518 26.7421C25.1253 26.678 25.1291 27.0841 25.0561 27.4493C24.9574 27.9605 24.6371 29.1602 24.6256 29.6759C24.6025 30.4186 24.9446 30.9877 26.3425 30.8194C27.9953 30.6306 28.9562 29.1602 29.479 28.0389C29.5559 27.8884 28.9024 27.6933 28.8448 27.8536C28.4258 28.8832 27.5507 29.8664 26.8909 29.9359C26.1529 30.0348 26.632 28.8574 26.978 27.2248C27.2009 26.2487 26.7358 25.571 25.3649 25.701C24.2797 25.7945 23.3546 26.5907 22.8165 27.1393C23.1304 25.7135 23.5519 23.9188 23.8966 23.0523C23.9414 22.7254 22.368 22.6809 22.0708 22.9454Z" fill="#FFA500"/>
<path d="M31.1651 25.2258C29.174 25.3487 27.5661 26.4673 27.3829 28.05C27.1932 29.4055 28.3348 30.5998 30.9217 30.4377C32.5373 30.3344 34.5028 29.7707 35.4957 27.5209C35.556 27.3722 34.9217 27.187 34.8449 27.3375C34.1376 28.9771 32.4143 29.5435 31.2471 29.5596C30.0466 29.5792 29.3329 29.1499 29.3009 28.3875C31.324 28.5371 32.8602 27.9867 33.3304 27.0489C33.8224 26.1333 33.0716 25.11 31.1651 25.2258ZM31.0934 26.0808C31.7391 26.0372 31.8314 26.4602 31.6302 26.8717C31.3829 27.4194 30.5898 27.7979 29.3124 27.7765C29.4675 26.902 30.2913 26.1137 31.0934 26.0808Z" fill="#FFA500"/>
<path d="M41.164 26.7832C40.5336 28.177 39.656 28.8512 38.6707 28.9233C37.925 28.9874 37.5573 28.4682 37.4471 27.6524C39.8802 26.9176 40.3812 25.2833 39.237 24.7481C38.4067 24.3411 36.5515 24.7401 35.5444 25.9504C35.7712 24.806 36.3324 22.737 36.5054 21.9684C36.4592 21.614 34.8602 21.6193 34.6975 21.8607C34.2094 23.7684 33.4522 26.8597 32.9115 29.9199C32.9192 30.3501 34.7027 30.1248 34.8218 29.8273C34.9102 29.1629 35.0447 28.4691 35.2446 27.4591C35.4368 26.4144 36.8987 25.4392 37.6739 25.636C38.4759 25.7946 38.0019 26.8036 35.9134 27.5455C36.0826 29.5637 37.2254 29.8968 38.294 29.805C39.8007 29.6634 41.0589 28.5145 41.7841 26.9809C41.861 26.8312 41.2255 26.6469 41.164 26.7832Z" fill="#FFA500"/>
<path d="M41.3959 23.6301C42.0737 23.5713 42.4952 23.2364 42.4875 22.8063C42.4991 22.3868 42.075 22.124 41.4638 22.1766C40.8347 22.2184 40.4119 22.5542 40.3863 22.9871C40.3747 23.4065 40.836 23.6782 41.3959 23.6301ZM41.1397 29.5483C42.8975 29.3737 43.9238 27.8855 44.4478 26.7651C44.5221 26.603 43.8841 26.4062 43.8098 26.5683C43.4049 27.5836 42.4504 28.5989 41.6701 28.6657C41.3165 28.7084 41.278 28.3878 41.3293 27.9051C41.4407 27.0821 41.6611 26.2859 42.0314 24.592C41.8623 24.3194 40.4478 24.2972 40.2248 24.592C39.884 26.0677 39.647 27.0572 39.4715 28.1963C39.3267 29.1297 39.7367 29.6926 41.1397 29.5483Z" fill="#FFA500"/>
<path d="M47.0923 23.8341C45.9725 23.9187 44.9552 24.7826 44.4325 25.3303C44.5247 24.9758 44.558 24.7692 44.6426 24.38C44.4081 24.0291 43.0769 24.0834 42.8514 24.3658C42.4786 26.1443 42.1416 27.5364 41.8777 29.1502C41.9802 29.5358 43.6509 29.3568 43.7918 29.0807C43.9597 27.9906 44.0391 27.3734 44.3172 26.2254C44.8399 25.5824 45.6394 24.9518 46.2301 24.8894C46.8053 24.828 46.7887 25.2243 46.7336 25.5877C46.667 26.0838 46.4197 27.4081 46.3902 27.8178C46.3223 28.6007 46.8041 29.0861 48.0879 28.9516C49.7292 28.7993 50.7452 27.2523 51.241 26.1693C51.3012 26.0205 50.6657 25.8353 50.6055 25.9849C50.1597 27.0519 49.314 28.0093 48.6196 28.069C48.1955 28.1046 48.2006 27.6504 48.2583 27.2024C48.3454 26.6208 48.5837 25.9315 48.6734 25.3731C48.8259 24.3907 48.3826 23.7352 47.0923 23.8341Z" fill="#FFA500"/>
<path d="M52.6581 23.3931C50.7823 23.7814 49.0411 25.3062 48.9476 26.9173C48.8771 28.263 49.938 28.8063 51.1731 28.6879C52.5415 28.5463 53.1565 27.7518 53.6229 26.9823C53.5742 27.8712 54.1277 28.3744 54.9413 28.304C56.5339 28.1678 57.6563 26.9235 58.3084 25.5636C58.3853 25.4131 57.7331 25.2296 57.6742 25.3792C57.2463 26.456 56.2353 27.3564 55.6114 27.4214C55.2206 27.4553 55.0707 27.1925 55.1527 26.5878C55.2027 25.9973 55.382 25.2643 55.4884 24.8003C55.3769 24.5589 54.079 24.4191 53.8228 24.7166C53.514 26.2743 52.1366 28.2105 51.2064 27.7162C50.7683 27.4784 50.7273 26.6688 51.1168 25.8584C51.5037 25.0354 52.3288 24.3541 53.2962 24.176C54.0636 24.0379 55.0412 24.1216 55.8061 24.4512C56.0931 24.5215 56.6915 23.9204 56.489 23.7458C55.4205 23.1562 53.7536 23.1678 52.6581 23.3931Z" fill="#FFA500"/>
<path d="M57.6614 19.8888C57.0144 21.7626 56.2315 25.2031 55.7895 27.9436C55.7011 28.4183 57.7152 28.1253 57.7575 27.8821C57.8894 26.8784 58.0112 26.2104 58.2533 25.0535C58.7376 24.3891 59.5346 23.7469 60.1086 23.6855C60.7172 23.6214 60.721 24.0275 60.648 24.3926C60.5493 24.9039 60.229 26.1035 60.2175 26.6192C60.1944 27.362 60.5365 27.9311 61.9343 27.7628C63.5872 27.574 64.5481 26.1035 65.0708 24.9822C65.1477 24.8317 64.493 24.6367 64.4366 24.797C64.0164 25.8266 63.1426 26.8098 62.4827 26.8793C61.7434 26.9781 62.2226 25.8007 62.5686 24.1682C62.7915 23.1921 62.3277 22.5143 60.9568 22.6443C59.8715 22.7379 58.9465 23.5341 58.4071 24.0827C58.7223 22.6568 59.1425 20.8622 59.4884 19.9956C59.5333 19.6688 57.9586 19.6242 57.6614 19.8888Z" fill="#FFA500"/>
<path d="M21.8927 30.489C20.4462 30.5558 19.3853 31.0964 18.614 31.8713C18.2706 31.5658 18.0464 31.2309 17.9618 30.9895C17.8709 30.7865 17.1572 30.8764 17.2367 31.0893C17.3353 31.4927 17.6966 31.9692 18.1643 32.3593C17.5967 33.1163 17.3276 33.9998 17.3968 34.8557C17.5352 36.5666 19.0535 37.5169 21.0663 37.3058C22.9574 37.1055 24.0414 36.3805 24.6858 34.976C24.7473 34.8566 24.2374 34.699 24.1785 34.8281C23.6403 35.9842 22.4834 36.4473 21.5801 36.5542C20.2514 36.7448 19.1675 36.2246 18.9253 34.7818C18.8293 34.2448 18.9113 33.616 19.1662 33.0389C21.2354 33.8378 23.6134 33.2018 23.9132 32.0191C24.1874 31.0857 23.3392 30.4222 21.8927 30.489ZM21.7723 31.2077C22.3591 31.1766 22.6666 31.5132 22.4782 31.922C22.3002 32.6265 20.6871 32.9177 19.5134 32.435C20.0131 31.7608 20.6948 31.2621 21.7723 31.2077Z" fill="#737373"/>
<path d="M25.8326 32.7531C24.3322 33.0639 22.9382 34.284 22.8652 35.5728C22.8088 36.6486 23.657 37.0833 24.6436 36.9889C25.739 36.8757 26.2323 36.2407 26.6039 35.6244C26.5654 36.336 27.0087 36.7377 27.6596 36.6825C28.9332 36.5729 29.8301 35.5772 30.3528 34.4898C30.4143 34.3695 29.8928 34.2226 29.8454 34.3419C29.5021 35.204 28.6949 35.9237 28.1952 35.9762C27.8826 36.0029 27.7634 35.7936 27.8287 35.3091C27.8685 34.8371 28.012 34.2502 28.0978 33.8788C28.0081 33.6864 26.9703 33.5742 26.764 33.812C26.5167 35.058 25.4161 36.6068 24.6717 36.2113C24.3207 36.0216 24.2886 35.3733 24.6 34.7249C24.9101 34.0667 25.5699 33.5225 26.3425 33.3792C26.9575 33.2696 27.7391 33.3355 28.3502 33.5991C28.5808 33.6561 29.06 33.1752 28.8973 33.0354C28.0427 32.5633 26.7089 32.5731 25.8326 32.7531Z" fill="#737373"/>
<path d="M30.9614 36.438C31.7904 36.3756 32.5207 36.0737 33.0601 35.6257C34.0607 35.6738 35.2459 35.4476 35.8993 34.0137C35.9583 33.8837 35.4253 33.7483 35.3907 33.8658C34.9858 34.8384 34.2568 35.1501 33.547 35.1822C34.4323 33.8908 34.2055 32.2262 32.3311 32.2146C31.643 32.2164 30.9319 32.4783 30.4386 32.7989C30.6513 31.8993 30.914 30.8253 31.1997 30.0344C31.1561 29.7895 30.0081 29.7547 29.7263 29.9507C29.3752 30.9188 28.504 33.6058 28.8973 34.9684C29.0139 35.8582 29.4816 36.5555 30.9614 36.438ZM30.873 35.7851C29.7058 35.7985 30.0286 34.288 30.2913 33.5194C30.7397 33.1747 31.2433 32.9111 31.7353 32.8879C32.8807 32.8283 32.5553 34.1767 32.3118 34.7422C31.907 34.7102 31.6456 35.0967 31.9223 35.3407C31.6917 35.5901 31.3676 35.7807 30.873 35.7851Z" fill="#737373"/>
<path d="M37.2472 31.765C35.6546 31.863 34.3682 32.7581 34.2209 34.0236C34.0697 35.1084 34.9832 36.0641 37.0525 35.934C38.3452 35.8512 39.9173 35.4005 40.7117 33.6006C40.7604 33.4821 40.2517 33.3343 40.1902 33.4545C39.6252 34.7664 38.2466 35.2189 37.3126 35.2322C36.3516 35.2474 35.7815 34.9045 35.7558 34.2944C37.3741 34.4137 38.6028 33.9738 38.9795 33.2239C39.3728 32.4909 38.7719 31.6724 37.2472 31.765ZM37.1896 32.449C37.7072 32.4143 37.7802 32.7518 37.6188 33.0814C37.4215 33.5195 36.7872 33.8232 35.7661 33.8054C35.8891 33.1063 36.5477 32.4757 37.1896 32.449Z" fill="#737373"/>
<path d="M40.8924 29.1147C39.934 29.6856 39.3485 31.0367 39.1281 32.4341C38.85 34.1993 39.0973 35.594 40.9551 35.5878C42.8245 35.5708 43.5548 34.4941 44.1429 33.3042C44.1903 33.1857 43.6816 33.0379 43.633 33.1475C43.2306 33.9864 42.4094 34.8601 41.4087 34.8886C40.5323 34.9162 40.3004 34.2278 40.4298 33.2508C42.116 32.589 43.1051 31.5755 43.3639 30.472C43.77 28.9633 42.0993 28.3897 40.8924 29.1147ZM41.9199 29.5529C42.303 29.5395 42.2748 30.1541 41.9545 30.9093C41.6906 31.5158 41.173 32.1624 40.5144 32.5632C40.6374 31.9407 40.8578 31.2424 41.0166 30.8176C41.2755 30.106 41.5522 29.5752 41.9199 29.5529Z" fill="#737373"/>
<path d="M45.4908 31.056C43.8982 31.1549 42.6118 32.0491 42.4645 33.3155C42.3133 34.4003 43.2268 35.3551 45.296 35.225C46.5888 35.1431 48.1609 34.6925 48.9553 32.8916C49.004 32.7732 48.4953 32.6253 48.4338 32.7455C47.8688 34.0574 46.4902 34.5108 45.5561 34.5232C44.5952 34.5393 44.025 34.1955 43.9994 33.5854C45.6176 33.7056 46.8463 33.2648 47.223 32.5149C47.6164 31.7819 47.0155 30.9634 45.4908 31.056ZM45.4331 31.74C45.9507 31.7053 46.0238 32.0437 45.8623 32.3733C45.665 32.8115 45.0308 33.1143 44.0097 33.0965C44.1327 32.3973 44.7912 31.7667 45.4331 31.74Z" fill="#737373"/>
<path d="M47.642 33.3214C48.0533 32.5395 48.2749 31.851 48.4107 31.2178C48.7375 31.428 49.3486 31.6916 49.0949 32.0479C48.6516 32.6508 48.1788 33.3232 48.2865 33.9262C48.3902 34.5104 48.9809 34.8907 50.0405 34.8088C51.628 34.6823 52.5453 33.7231 53.0514 32.5413C53.1001 32.4317 52.6043 32.2732 52.5543 32.3827C52.0188 33.5486 51.0873 34.0393 50.4505 34.0945C50.0162 34.1319 49.8304 33.9378 49.8086 33.6617C49.7702 33.2146 50.1545 32.6659 50.5889 32.169C51.1603 31.5072 49.6984 31.0299 48.8425 30.548C49.0924 29.1685 46.5004 29.9175 47.9046 31.0023C47.724 31.8501 47.5292 32.3738 47.1218 33.1843C47.0488 33.3143 47.5677 33.4426 47.642 33.3214Z" fill="#737373"/>
<path d="M54.3993 30.2904C52.8067 30.3893 51.5203 31.2843 51.373 32.5499C51.2218 33.6347 52.1353 34.5903 54.2033 34.4603C55.4973 34.3775 57.0681 33.9268 57.8638 32.1269C57.9112 32.0075 57.4038 31.8597 57.3423 31.9808C56.776 33.2918 55.3974 33.7451 54.4646 33.7585C53.5037 33.7736 52.9335 33.4307 52.9079 32.8198C54.5261 32.94 55.7548 32.4991 56.1303 31.7492C56.5249 31.0171 55.924 30.1978 54.3993 30.2904ZM54.3416 30.9744C54.8593 30.9406 54.9323 31.2781 54.7708 31.6076C54.5735 32.0458 53.9393 32.3495 52.9169 32.3317C53.0399 31.6317 53.6997 31.0011 54.3416 30.9744Z" fill="#737373"/>
<path d="M57.5525 29.4477C58.0944 29.4005 58.4327 29.1325 58.4263 28.7887C58.4365 28.4529 58.0957 28.2427 57.6076 28.2846C57.104 28.3184 56.7658 28.5865 56.7453 28.933C56.7363 29.2687 57.1053 29.4851 57.5525 29.4477ZM57.3475 34.1823C58.7543 34.0425 59.5755 32.8517 59.9945 31.9557C60.0535 31.8257 59.5435 31.669 59.4846 31.7981C59.1604 32.6104 58.3968 33.4226 57.7728 33.476C57.4897 33.5099 57.4577 33.2543 57.4999 32.8677C57.5883 32.2096 57.7652 31.5728 58.0611 30.2172C57.9266 29.999 56.794 29.9812 56.6159 30.2172C56.343 31.3982 56.1533 32.1891 56.0124 33.1011C55.8971 33.8474 56.2251 34.2981 57.3475 34.1823Z" fill="#737373"/>
<path d="M58.6774 32.3742C59.09 31.5922 59.3116 30.9038 59.4462 30.2705C59.7742 30.4807 60.384 30.7443 60.1316 31.1006C59.687 31.7035 59.2155 32.376 59.3232 32.9789C59.4257 33.5632 60.0176 33.9435 61.0759 33.8615C62.6647 33.7351 63.582 32.7758 64.0868 31.594C64.1355 31.4844 63.641 31.3259 63.591 31.4355C63.0542 32.6013 62.124 33.092 61.4859 33.1472C61.0528 33.1846 60.8658 32.9905 60.8453 32.7144C60.8068 32.2673 61.1912 31.7187 61.6256 31.2217C62.1957 30.56 60.7351 30.0826 59.8792 29.6008C60.1291 28.2212 57.5371 28.9702 58.9413 30.055C58.7607 30.9029 58.5647 31.4266 58.1585 32.237C58.0855 32.3671 58.6031 32.4953 58.6774 32.3742Z" fill="#737373"/>
<path d="M65.4052 29.328C63.8088 29.4839 62.5083 30.4564 62.3597 31.7897C62.2085 33.2575 63.3693 33.6743 64.6839 33.5612C65.5795 33.4846 66.297 33.1835 66.8338 32.7168C67.8486 32.773 68.9761 32.5325 69.6193 31.1191C69.6782 30.989 69.1721 30.851 69.1106 30.9712C68.6968 31.9732 67.9511 32.2671 67.2784 32.2769C68.1958 30.8581 67.814 29.092 65.4052 29.328ZM65.3476 30.012C66.3572 29.8873 66.3944 30.9454 66.0202 31.8583C65.6307 31.8342 65.3399 32.2136 65.6461 32.4648C65.4373 32.6839 65.1221 32.8442 64.7825 32.8736C63.942 32.9457 63.8613 32.2635 63.9203 31.665C63.9984 30.9409 64.5532 30.1091 65.3476 30.012Z" fill="#737373"/>
<path d="M22.1964 30.3348C20.7498 30.4007 19.689 30.9422 18.9177 31.7162C18.5743 31.4107 18.3501 31.0758 18.2655 30.8345C18.1745 30.6323 17.4609 30.7213 17.5403 30.9351C17.639 31.3377 18.0003 31.8141 18.4679 32.2042C17.9003 32.9613 17.6313 33.8457 17.7005 34.7007C17.8388 36.4116 19.3571 37.3619 21.37 37.1517C23.2611 36.9504 24.345 36.2254 24.9895 34.8218C25.051 34.7016 24.5411 34.5439 24.4821 34.6739C23.944 35.83 22.787 36.2931 21.8837 36.3991C20.5551 36.5897 19.4712 36.0704 19.229 34.6276C19.1329 34.0897 19.2149 33.4609 19.4699 32.8838C21.5391 33.6827 23.9171 33.0477 24.2169 31.864C24.4911 30.9315 23.6429 30.2671 22.1964 30.3348ZM22.0759 31.0527C22.6627 31.0215 22.9702 31.359 22.7819 31.7669C22.6038 32.4714 20.9907 32.7627 19.8171 32.2799C20.3168 31.6057 20.9984 31.107 22.0759 31.0527Z" fill="#FFA500"/>
<path d="M26.1375 32.5991C24.6359 32.91 23.2419 34.1301 23.1688 35.418C23.1125 36.4947 23.9606 36.9294 24.9485 36.8349C26.0427 36.7218 26.5359 36.0859 26.9088 35.4705C26.8704 36.1821 27.3124 36.5838 27.9633 36.5277C29.2381 36.419 30.135 35.4233 30.6577 34.335C30.7192 34.2156 30.1965 34.0687 30.1491 34.1871C29.807 35.0492 28.9985 35.7689 28.4988 35.8223C28.1875 35.849 28.067 35.6388 28.1324 35.1543C28.1721 34.6823 28.3156 34.0963 28.4014 33.7249C28.3118 33.5316 27.2739 33.4203 27.0677 33.6581C26.8217 34.9032 25.7198 36.4529 24.9754 36.0574C24.6256 35.8668 24.5923 35.2194 24.9036 34.571C25.2137 33.9128 25.8735 33.3677 26.6474 33.2252C27.2611 33.1148 28.044 33.1816 28.6539 33.4452C28.8845 33.5013 29.3637 33.0204 29.2022 32.8815C28.3464 32.4094 27.0139 32.4183 26.1375 32.5991Z" fill="#FFA500"/>
<path d="M31.265 36.2832C32.094 36.2217 32.8243 35.9198 33.3637 35.4718C34.3644 35.5199 35.5495 35.2937 36.203 33.8598C36.2619 33.7297 35.7289 33.5935 35.6943 33.7119C35.2894 34.6845 34.5604 34.9953 33.8506 35.0274C34.7359 33.7369 34.5092 32.0723 32.6347 32.0607C31.9467 32.0625 31.2356 32.3243 30.7423 32.6441C30.955 31.7454 31.2176 30.6704 31.5034 29.8805C31.4598 29.6355 30.3118 29.5999 30.0299 29.7967C29.6789 30.7648 28.8076 33.451 29.201 34.8145C29.3175 35.7042 29.7852 36.4007 31.265 36.2832ZM31.1766 35.6312C30.0094 35.6446 30.3323 34.1341 30.595 33.3655C31.0434 33.0199 31.5469 32.7572 32.0389 32.734C33.1844 32.6743 32.8589 34.0227 32.6155 34.5883C32.2106 34.5562 31.9492 34.9419 32.226 35.1859C31.9954 35.4362 31.6712 35.6259 31.1766 35.6312Z" fill="#FFA500"/>
<path d="M37.5521 31.6107C35.9583 31.7096 34.6719 32.6038 34.5258 33.8702C34.3746 34.955 35.2869 35.9098 37.3561 35.7797C38.6489 35.6978 40.221 35.2471 41.0166 33.4463C41.0641 33.3278 40.5554 33.18 40.4939 33.3002C39.9289 34.6121 38.5502 35.0655 37.6162 35.0779C36.6553 35.094 36.0864 34.7502 36.0608 34.1401C37.6777 34.2603 38.9077 33.8195 39.2831 33.0696C39.6765 32.3366 39.0768 31.5181 37.5521 31.6107ZM37.4932 32.2947C38.0108 32.26 38.0851 32.5984 37.9237 32.928C37.7264 33.3661 37.0909 33.669 36.0697 33.6511C36.1927 32.952 36.8526 32.3214 37.4932 32.2947Z" fill="#FFA500"/>
<path d="M41.196 28.9628C40.2376 29.5328 39.6521 30.8847 39.433 32.2812C39.1537 34.0464 39.4023 35.4412 41.2601 35.4358C43.1281 35.418 43.8584 34.3412 44.4465 33.1523C44.4939 33.0329 43.9866 32.8851 43.9366 32.9955C43.5356 33.8336 42.713 34.7073 41.7136 34.7358C40.8373 34.7634 40.6041 34.0749 40.7335 33.0979C42.4196 32.4362 43.41 31.4227 43.6675 30.3201C44.0737 28.8113 42.4029 28.2369 41.196 28.9628ZM42.2236 29.4009C42.6079 29.3867 42.5798 30.0012 42.2594 30.7565C41.9955 31.363 41.4766 32.0105 40.818 32.4113C40.9423 31.7878 41.1614 31.0896 41.3203 30.6647C41.5791 29.9531 41.8571 29.4223 42.2236 29.4009Z" fill="#FFA500"/>
<path d="M45.7957 30.9017C44.2018 31.0006 42.9154 31.8957 42.7694 33.1612C42.6182 34.246 43.5304 35.2017 45.5997 35.0716C46.8925 34.9888 48.4645 34.5381 49.2602 32.7382C49.3076 32.6188 48.799 32.471 48.7375 32.5921C48.1724 33.9031 46.7938 34.3565 45.8598 34.3698C44.8988 34.385 44.3299 34.0421 44.3043 33.4311C45.9213 33.5513 47.1513 33.1105 47.5267 32.3606C47.92 31.6285 47.3204 30.8091 45.7957 30.9017ZM45.7368 31.5857C46.2544 31.5519 46.3287 31.8894 46.1673 32.219C45.9699 32.6571 45.3344 32.9609 44.3133 32.943C44.4363 32.243 45.0961 31.6124 45.7368 31.5857Z" fill="#FFA500"/>
<path d="M47.9456 33.1669C48.3569 32.3858 48.5786 31.6965 48.7144 31.0632C49.0411 31.2743 49.6523 31.5379 49.3986 31.8942C48.9553 32.4963 48.4825 33.1687 48.5901 33.7716C48.6939 34.3559 49.2845 34.7362 50.3441 34.6551C51.9316 34.5287 52.849 33.5686 53.3551 32.3867C53.4038 32.2772 52.9079 32.1186 52.858 32.2291C52.3224 33.394 51.3909 33.8856 50.7541 33.9408C50.3198 33.9774 50.134 33.7832 50.1122 33.5071C50.0738 33.0609 50.4582 32.5114 50.8925 32.0144C51.464 31.3527 50.002 30.8753 49.1462 30.3944C49.396 29.0139 46.804 29.7629 48.2083 30.8486C48.0276 31.6965 47.8329 32.2202 47.4254 33.0297C47.3524 33.1607 47.8713 33.288 47.9456 33.1669Z" fill="#FFA500"/>
<path d="M54.703 30.1381C53.1104 30.236 51.824 31.1311 51.6767 32.3967C51.5255 33.4815 52.439 34.4371 54.5069 34.3071C55.801 34.2242 57.3718 33.7736 58.1675 31.9736C58.2149 31.8552 57.7075 31.7073 57.646 31.8276C57.0797 33.1395 55.7011 33.5919 54.7683 33.6053C53.8074 33.6204 53.2372 33.2775 53.2116 32.6674C54.8298 32.7868 56.0585 32.3468 56.4339 31.5969C56.8286 30.8639 56.2276 30.0454 54.703 30.1381ZM54.6453 30.8221C55.1629 30.7873 55.236 31.1249 55.0745 31.4544C54.8772 31.8926 54.243 32.1963 53.2206 32.1785C53.3436 31.4793 54.0034 30.8488 54.6453 30.8221Z" fill="#FFA500"/>
<path d="M57.8561 29.2928C58.3981 29.2456 58.7363 28.9784 58.7299 28.6337C58.7402 28.2979 58.3994 28.0877 57.9112 28.1305C57.4077 28.1635 57.0694 28.4315 57.0489 28.778C57.04 29.1137 57.409 29.3311 57.8561 29.2928ZM57.6511 34.0273C59.0579 33.8875 59.8792 32.6976 60.2982 31.8008C60.3571 31.6707 59.8472 31.514 59.7882 31.6431C59.4641 32.4554 58.7005 33.2676 58.0765 33.3211C57.7933 33.3549 57.7613 33.0993 57.8036 32.7136C57.892 32.0546 58.0688 31.4178 58.3648 30.0623C58.2302 29.8441 57.0976 29.8262 56.9195 30.0623C56.6466 31.2432 56.457 32.035 56.3161 32.9461C56.2007 33.6924 56.5287 34.1431 57.6511 34.0273Z" fill="#FFA500"/>
<path d="M58.9823 32.2192C59.3936 31.4382 59.6153 30.7497 59.7511 30.1156C60.0778 30.3267 60.689 30.5903 60.4353 30.9465C59.992 31.5495 59.5192 32.221 59.6268 32.8249C59.7306 33.4091 60.3213 33.7885 61.3808 33.7075C62.9683 33.581 63.8857 32.6218 64.3918 31.4391C64.4405 31.3304 63.9446 31.1719 63.8947 31.2814C63.3591 32.4472 62.4276 32.938 61.7908 32.9932C61.3565 33.0297 61.1707 32.8355 61.1489 32.5595C61.1105 32.1133 61.4949 31.5637 61.9292 31.0668C62.5007 30.4059 61.0388 29.9286 60.1829 29.4467C60.4327 28.0671 57.8408 28.8153 59.245 29.9009C59.0643 30.7488 58.8696 31.2725 58.4622 32.0821C58.3891 32.213 58.908 32.3404 58.9823 32.2192Z" fill="#FFA500"/>
<path d="M65.7089 29.1737C64.1125 29.3296 62.812 30.3021 62.6634 31.6363C62.5122 33.1031 63.673 33.5209 64.9876 33.4069C65.8832 33.3303 66.6007 33.0292 67.1375 32.5625C68.1523 32.6195 69.2798 32.3791 69.9229 30.9648C69.9819 30.8347 69.4758 30.6967 69.4143 30.8169C69.0004 31.8189 68.2548 32.1128 67.5821 32.1226C68.4995 30.7047 68.1177 28.9377 65.7089 29.1737ZM65.6513 29.8577C66.6609 29.733 66.698 30.792 66.3239 31.704C65.9344 31.6808 65.6436 32.0593 65.9498 32.3105C65.7409 32.5296 65.4258 32.6908 65.0862 32.7193C64.2457 32.7923 64.165 32.1101 64.2239 31.5116C64.3021 30.7866 64.8569 29.9548 65.6513 29.8577Z" fill="#FFA500"/>
</svg>
