<svg width="25" height="21" viewBox="0 0 25 21" fill="none" xmlns="http://www.w3.org/2000/svg">
<g clip-path="url(#clip0_118_12)">
<path d="M24.5535 10.6959C24.5535 9.83556 24.4718 9.20772 24.2951 8.55664H12.8052V12.4399H19.5495C19.4136 13.4049 18.6793 14.8582 17.0476 15.8348L17.0247 15.9648L20.6576 18.3713L20.9093 18.3927C23.2209 16.5673 24.5535 13.8816 24.5535 10.6959Z" fill="#4285F4"/>
<path d="M12.8052 20.9296C16.1094 20.9296 18.8833 19.9994 20.9094 18.395L17.0477 15.8371C16.0143 16.4533 14.6273 16.8835 12.8052 16.8835C9.56903 16.8835 6.82234 15.0581 5.84322 12.5352L5.6997 12.5456L1.92214 15.0453L1.87274 15.1627C3.88517 18.5809 8.01885 20.9296 12.8052 20.9296Z" fill="#34A853"/>
<path d="M5.84318 12.5344C5.58483 11.8833 5.43532 11.1857 5.43532 10.4649C5.43532 9.74399 5.58483 9.04642 5.82959 8.39534L5.82275 8.25668L1.99786 5.7168L1.87272 5.76769C1.0433 7.18616 0.567383 8.77903 0.567383 10.4649C0.567383 12.1507 1.0433 13.7435 1.87272 15.162L5.84318 12.5344Z" fill="#FBBC05"/>
<path d="M12.8052 4.04603C15.1032 4.04603 16.6532 4.89476 17.5371 5.60403L20.9909 2.72062C18.8697 1.03477 16.1094 0 12.8052 0C8.01883 0 3.88516 2.34855 1.87274 5.76674L5.82961 8.39439C6.82233 5.87142 9.56901 4.04603 12.8052 4.04603Z" fill="#EB4335"/>
</g>
<defs>
<clipPath id="clip0_118_12">
<rect width="24" height="21" fill="white" transform="translate(0.566132)"/>
</clipPath>
</defs>
</svg>
